/* XPM */
static char * ico_xpm[] = {
"32 32 448 2",
"  	c None",
". 	c #7E3308",
"+ 	c #8B3803",
"@ 	c #863603",
"# 	c #853506",
"$ 	c #8A3700",
"% 	c #7F3404",
"& 	c #923B01",
"* 	c #903B03",
"= 	c #904211",
"- 	c #BC672D",
"; 	c #A75620",
"> 	c #803404",
", 	c #8E3B02",
"' 	c #903901",
") 	c #963D00",
"! 	c #8D3801",
"~ 	c #963C00",
"{ 	c #843603",
"] 	c #8F3B03",
"^ 	c #AA5923",
"/ 	c #B9662C",
"( 	c #8B3E0C",
"_ 	c #914511",
": 	c #E38749",
"< 	c #E7894A",
"[ 	c #F2904F",
"} 	c #DB8043",
"| 	c #863C0A",
"1 	c #933D03",
"2 	c #9B3E00",
"3 	c #9D3F00",
"4 	c #9C3F00",
"5 	c #9A3E00",
"6 	c #913A02",
"7 	c #8B3E0F",
"8 	c #E08445",
"9 	c #F18F4F",
"0 	c #E28647",
"a 	c #873F0B",
"b 	c #BA662F",
"c 	c #E48749",
"d 	c #C7733B",
"e 	c #C3713A",
"f 	c #DB8145",
"g 	c #D77D3E",
"h 	c #933C02",
"i 	c #9E3F00",
"j 	c #A14000",
"k 	c #A34100",
"l 	c #A44100",
"m 	c #803401",
"n 	c #D97F44",
"o 	c #C27039",
"p 	c #C8743C",
"q 	c #B05F28",
"r 	c #9A4B17",
"s 	c #DE8246",
"t 	c #BA6B36",
"u 	c #9D5728",
"v 	c #A55D2C",
"w 	c #AC551D",
"x 	c #A04000",
"y 	c #A74300",
"z 	c #A94300",
"A 	c #AA4400",
"B 	c #A74200",
"C 	c #953B00",
"D 	c #A55520",
"E 	c #A35B2B",
"F 	c #9E5829",
"G 	c #BD6D37",
"H 	c #DC8245",
"I 	c #914510",
"J 	c #B5612A",
"K 	c #C1703A",
"L 	c #925023",
"M 	c #7C3C13",
"N 	c #9E4002",
"O 	c #A54200",
"P 	c #AD4500",
"Q 	c #B14905",
"R 	c #B44C09",
"S 	c #B34C08",
"T 	c #B04803",
"U 	c #AC4400",
"V 	c #893903",
"W 	c #773B13",
"X 	c #955224",
"Y 	c #C4703A",
"Z 	c #AE5D25",
"` 	c #B15E28",
" .	c #A65D2D",
"..	c #8D3C07",
"+.	c #A44200",
"@.	c #9D3E00",
"#.	c #7F3401",
"$.	c #893C09",
"%.	c #BE5A19",
"&.	c #C25E1E",
"*.	c #C15E1E",
"=.	c #90420F",
"-.	c #803707",
";.	c #9E3E00",
">.	c #9F3F00",
",.	c #7C3508",
"'.	c #AB602E",
").	c #A95A23",
"!.	c #AA5720",
"~.	c #A24100",
"{.	c #A64200",
"].	c #B95311",
"^.	c #C46021",
"/.	c #CB6A2D",
"(.	c #D07033",
"_.	c #CF6F33",
":.	c #CA692B",
"<.	c #AD4C0D",
"[.	c #AB4400",
"}.	c #8C3802",
"|.	c #A75720",
"1.	c #983E04",
"2.	c #B95E24",
"3.	c #DD9162",
"4.	c #E2996A",
"5.	c #D4824F",
"6.	c #D57940",
"7.	c #DD8148",
"8.	c #DC7F46",
"9.	c #D5824E",
"0.	c #E29969",
"a.	c #E19869",
"b.	c #C66F36",
"c.	c #A94501",
"d.	c #813604",
"e.	c #9F4000",
"f.	c #BB652E",
"g.	c #FBBB8F",
"h.	c #FFBE93",
"i.	c #E69764",
"j.	c #EA915C",
"k.	c #E09464",
"l.	c #FFBE92",
"m.	c #D27941",
"n.	c #893600",
"o.	c #973D01",
"p.	c #A24407",
"q.	c #EEA97D",
"r.	c #F3B791",
"s.	c #ECCFBC",
"t.	c #ECCDBB",
"u.	c #F4B891",
"v.	c #FEB380",
"w.	c #E59360",
"x.	c #F1AE82",
"y.	c #F5B890",
"z.	c #ECCCB9",
"A.	c #EDD1C0",
"B.	c #F2B992",
"C.	c #FCB280",
"D.	c #B4571A",
"E.	c #7B3201",
"F.	c #943A01",
"G.	c #993D00",
"H.	c #B05A21",
"I.	c #FEBD91",
"J.	c #EDD5C7",
"K.	c #80C2DD",
"L.	c #85C6DF",
"M.	c #ECD2C2",
"N.	c #FFB484",
"O.	c #E18D5B",
"P.	c #FEBD92",
"Q.	c #EBCFBC",
"R.	c #8DCBE3",
"S.	c #79BED9",
"T.	c #ECD9CF",
"U.	c #FCB88C",
"V.	c #D17539",
"W.	c #903B00",
"X.	c #BE7B51",
"Y.	c #9C5B2E",
"Z.	c #8E3A02",
"`.	c #B35E27",
" +	c #EFB28A",
".+	c #C0E7F6",
"++	c #5E6B70",
"@+	c #1F3841",
"#+	c #C8E7F2",
"$+	c #F5A875",
"%+	c #DC8551",
"&+	c #F5B489",
"*+	c #CEE0E9",
"=+	c #546C76",
"-+	c #2A353A",
";+	c #B3E3F5",
">+	c #EFB088",
",+	c #D4783C",
"'+	c #943F03",
")+	c #9B5B31",
"!+	c #9F643F",
"~+	c #DEA07D",
"{+	c #EBBC9D",
"]+	c #AC734F",
"^+	c #E0B397",
"/+	c #C99A7D",
"(+	c #9A5B32",
"_+	c #BF835B",
":+	c #B6D8E4",
"<+	c #27373C",
"[+	c #1A3038",
"}+	c #C3E4EF",
"|+	c #E18D56",
"1+	c #C26D37",
"2+	c #D28E62",
"3+	c #C9E0E7",
"4+	c #28444F",
"5+	c #1C262A",
"6+	c #B1E1F4",
"7+	c #E19B71",
"8+	c #AC6537",
"9+	c #9E5D33",
"0+	c #C3906F",
"a+	c #D0A082",
"b+	c #AF7C5A",
"c+	c #E4BCA4",
"d+	c #C89274",
"e+	c #E4B8A0",
"f+	c #EBC5AE",
"g+	c #F5D1BB",
"h+	c #FFE0CC",
"i+	c #FFDFCB",
"j+	c #E7C1AA",
"k+	c #BC9177",
"l+	c #75766F",
"m+	c #877F72",
"n+	c #BB8768",
"o+	c #C59677",
"p+	c #C9997C",
"q+	c #BB8663",
"r+	c #AB7B5D",
"s+	c #68909B",
"t+	c #67ABC6",
"u+	c #C6A188",
"v+	c #D9AB91",
"w+	c #FEDECA",
"x+	c #F1CEB7",
"y+	c #EBC2A9",
"z+	c #EAAD87",
"A+	c #E0A885",
"B+	c #F4BF9F",
"C+	c #FFDCC6",
"D+	c #E5BFA6",
"E+	c #FCDCC7",
"F+	c #D6B19B",
"G+	c #B5866C",
"H+	c #9C6A4D",
"I+	c #A26F52",
"J+	c #C1977E",
"K+	c #E0BAA3",
"L+	c #B48063",
"M+	c #FBD9C4",
"N+	c #FFDECA",
"O+	c #FFCBA8",
"P+	c #F2AC7A",
"Q+	c #E2996D",
"R+	c #FFD4B8",
"S+	c #FBDBC5",
"T+	c #E8BCA2",
"U+	c #FBDAC3",
"V+	c #A37154",
"W+	c #6F2902",
"X+	c #7D4120",
"Y+	c #AE8873",
"Z+	c #7D401F",
"`+	c #6F2801",
" @	c #6A3518",
".@	c #FADBC6",
"+@	c #FAD9C2",
"@@	c #E9BFA6",
"#@	c #EBC4AB",
"$@	c #FCCAA7",
"%@	c #E3A882",
"&@	c #FFD9C1",
"*@	c #D7A282",
"=@	c #FDD8BF",
"-@	c #FEDFCB",
";@	c #AD7C60",
">@	c #773714",
",@	c #8D593C",
"'@	c #783815",
")@	c #6E2701",
"!@	c #58280E",
"~@	c #FBDDC8",
"{@	c #F5CDB5",
"]@	c #DDAD8F",
"^@	c #FFDECB",
"/@	c #FFD2B4",
"(@	c #ECB48F",
"_@	c #FFDBC4",
":@	c #E9BCA2",
"<@	c #EEC1A3",
"[@	c #E7B08E",
"}@	c #FDD2B6",
"|@	c #EECBB6",
"1@	c #814422",
"2@	c #672601",
"3@	c #5A260B",
"4@	c #B38D76",
"5@	c #FFD7BE",
"6@	c #EEBA98",
"7@	c #F1C5AB",
"8@	c #E9BEA4",
"9@	c #FFD2B2",
"0@	c #EBB48F",
"a@	c #FFDAC1",
"b@	c #EBC1A8",
"c@	c #FFDDC8",
"d@	c #F3C1A2",
"e@	c #F0CFBA",
"f@	c #A87C64",
"g@	c #7E553E",
"h@	c #976F59",
"i@	c #EECDB8",
"j@	c #FBD3B9",
"k@	c #E9B797",
"l@	c #FEDCC7",
"m@	c #EFC8AF",
"n@	c #FFC9A6",
"o@	c #FFD5BA",
"p@	c #EEC1A2",
"q@	c #FBCFB3",
"r@	c #F2D5C2",
"s@	c #DDC3B2",
"t@	c #D1B8A8",
"u@	c #FDDECA",
"v@	c #D2B8A8",
"w@	c #F1D4C1",
"x@	c #D0B7A7",
"y@	c #FFDFCA",
"z@	c #EAB595",
"A@	c #FFE0CB",
"B@	c #FCB88D",
"C@	c #FBC7A7",
"D@	c #E8B393",
"E@	c #FECFB2",
"F@	c #EDCFBD",
"G@	c #E3C8B6",
"H@	c #F3D4BF",
"I@	c #F6D8C5",
"J@	c #E7CBB9",
"K@	c #FFDDC7",
"L@	c #F1BA98",
"M@	c #F6D0BA",
"N@	c #FFCFB0",
"O@	c #F1A778",
"P@	c #EFB38E",
"Q@	c #FFDBC3",
"R@	c #E7A884",
"S@	c #EAAC88",
"T@	c #E4AA86",
"U@	c #DDA684",
"V@	c #E9AE88",
"W@	c #F5BA94",
"X@	c #EDB18B",
"Y@	c #EBB290",
"Z@	c #F5D0B7",
"`@	c #FFD7BB",
" #	c #FDB588",
".#	c #FAC2A0",
"+#	c #FFDCC9",
"@#	c #96403A",
"##	c #7E5F5F",
"$#	c #FFFFFF",
"%#	c #B7B5B5",
"&#	c #F9F9F9",
"*#	c #481E1B",
"=#	c #550000",
"-#	c #F9D0BE",
";#	c #FFDEC8",
">#	c #FEBB8C",
",#	c #E49B6C",
"'#	c #E39D72",
")#	c #FABE98",
"!#	c #FFDBC5",
"~#	c #AE5C54",
"{#	c #3B0909",
"]#	c #DFDADA",
"^#	c #BBB5B5",
"/#	c #A29696",
"(#	c #2E0000",
"_#	c #680D0C",
":#	c #FFDAC2",
"<#	c #FFC7A2",
"[#	c #FBB382",
"}#	c #E4996B",
"|#	c #F4AF80",
"1#	c #FEC6A0",
"2#	c #FFD7BC",
"3#	c #FFDFC7",
"4#	c #E6BEA7",
"5#	c #D4897D",
"6#	c #8E1D1B",
"7#	c #7B221F",
"8#	c #662B2A",
"9#	c #671715",
"0#	c #731412",
"a#	c #A5423C",
"b#	c #EEBFA3",
"c#	c #FFCDAD",
"d#	c #FFC199",
"e#	c #EFA679",
"f#	c #F2A97A",
"g#	c #F4AE81",
"h#	c #E1AB8C",
"i#	c #FFDFC9",
"j#	c #F9D3C0",
"k#	c #D14E47",
"l#	c #EF3F38",
"m#	c #E5423C",
"n#	c #EA3D36",
"o#	c #EEA192",
"p#	c #FFC8A5",
"q#	c #EB9E6D",
"r#	c #F1A97A",
"s#	c #E8A372",
"t#	c #DA9A72",
"u#	c #FFDEC9",
"v#	c #EBAF9F",
"w#	c #CE5049",
"x#	c #D3413B",
"y#	c #D4473F",
"z#	c #EDA091",
"A#	c #FFD4B7",
"B#	c #F6AC7B",
"C#	c #EAA679",
"D#	c #FFCDAE",
"E#	c #FFDCC4",
"F#	c #FFDDC6",
"G#	c #FFD6BB",
"H#	c #F9B07F",
"I#	c #D08959",
"J#	c #DE9362",
"K#	c #EDA271",
"L#	c #EFA472",
"M#	c #F1A471",
"N#	c #EDA16D",
"O#	c #E29767",
"                            . +                                 ",
"                          @ # $ % &   *                         ",
"            = - ;       > , ' ) ! ~ { ]       ^ / (             ",
"          _ : < [ } |   1 2 3 3 3 4 5 6   7 8 9 < 0 a           ",
"          b c d e f g h i j k l l k j i m 8 n o p < q           ",
"          r s t u v w x l y z A A z B k C D E F G H I           ",
"            J K L M N O z P Q R S T U z l V W X Y Z             ",
"              `  ...+.@.#.$.%.&.*.=.-.;.z >.,.'.).              ",
"                !.~.{.O ].^./.(._.:.&.<.[.B }.|.                ",
"                1.l 2.3.4.5.6.7.8.9.0.a.b.c.i d.                ",
"                e.f.g.h.h.h.i.j.k.h.h.h.l.m.O n.                ",
"              o.p.q.r.s.t.u.v.w.x.y.z.A.B.C.D.2 E.              ",
"            F.G.H.I.J.K.L.M.N.O.P.Q.R.S.T.U.V.i W.E.            ",
"          X.Y.Z.`. +.+++@+#+$+%+&+*+=+-+;+>+,+3 '+)+!+          ",
"      ~+{+]+^+/+(+_+:+<+[+}+|+1+2+3+4+5+6+7+8+9+0+a+b+c+d+      ",
"    e+f+g+h+i+h+h+j+k+l+m+n+o+p+q+r+s+t+u+v+w+h+h+h+h+x+y+z+    ",
"  A+B+C+h+h+h+h+h+h+h+D+E+F+G+H+I+J+K+L+M+h+h+h+h+h+h+N+O+P+Q+  ",
"      R+h+S+T+T+U+h+h+h+V+W+X+Y+Z+`+ @.@h+h++@@@#@h+h+N+$@      ",
"    %@&@i+*@=@h+-@h+h+h+;@`+>@,@'@)@!@~@h+h+h+h+{@]@h+^@/@      ",
"    (@_@w+:@<@[@}@h+h+h+|@1@`+W+2@3@4@h+h+h+5@6@7@8@h+i+9@      ",
"    0@a@i+b@h+c@{+d@h+h+h+e@f@g@h@i@h+h+h+j@k@l@h+m@h+N+n@      ",
"      o@h+h+h+h+i+p@q@r@s@t@u@v@r@w@x@h+y@z@A@h+h+h+h+c@B@      ",
"      C@i+h+h+h+h+A@D@E@F@G@h+H@I@J@s@K@L@M@h+h+h+h+y@N@O@      ",
"      P@Q@h+h+h+h+h+i+{+R@S@T@U@V@W@X@Y@Z@h+h+h+h+y@`@ #        ",
"        .#+#h+h+h+h+h+h+@###$#%#&#*#=#-#h+h+h+i+;#R+>#,#        ",
"        '#)#!#N+y@h+h+h+~#{#]#^#/#(#_#h+y@i+K@:#<#[#}#          ",
"            |#1#2#3#4#h+5#6#7#8#9#0#a#K@b#c#d#[#e#              ",
"                f#g#h#i#j#k#l#m#l#n#o#p#q#r#s#                  ",
"                    t#o@u#v#w#x#y#z#A#B#                        ",
"                      C#D#E#;#F#G#<#H#I#                        ",
"                        J#K#L#M#N#O#                            ",
"                                                                "};
